<svg width="45" height="48" viewBox="0 0 45 48" fill="none" xmlns="http://www.w3.org/2000/svg">
<path d="M11.8024 0C11.2107 0 10.731 0.479679 10.731 1.07143V6.96429C10.731 7.55598 11.2107 8.03572 11.8024 8.03572C12.3942 8.03572 12.8739 7.55598 12.8739 6.96429V1.07143C12.8739 0.479679 12.3942 0 11.8024 0ZM33.231 0C32.6393 0 32.1596 0.479679 32.1596 1.07143V6.96429C32.1596 7.55598 32.6393 8.03572 33.231 8.03572C33.8227 8.03572 34.3024 7.55598 34.3024 6.96429V1.07143C34.3024 0.479679 33.8227 0 33.231 0ZM4.30243 4.28571C1.92091 4.28571 0 6.20646 0 8.58814V18.2143H45V8.58814C45 6.20646 43.079 4.28571 40.6976 4.28571H37.5H35.3739V8.08591C36.6519 8.83055 37.5167 10.2101 37.5167 11.7857C37.5167 14.14 35.5855 16.0714 33.231 16.0714C30.8769 16.0714 28.9453 14.14 28.9453 11.7857C28.9453 10.2101 29.8102 8.83055 31.0881 8.08591V4.28571H13.9286V8.0692C15.2176 8.81095 16.0881 10.2019 16.0881 11.7857C16.0881 14.14 14.1569 16.0714 11.8024 16.0714C9.44834 16.0714 7.51671 14.14 7.51671 11.7857C7.51671 10.2152 8.37161 8.83226 9.64286 8.08591V4.28571H4.30243ZM11.8024 9.64286C10.6065 9.64286 9.65957 10.5895 9.65957 11.7857C9.65957 12.9819 10.6065 13.9286 11.8024 13.9286C12.9986 13.9286 13.9453 12.9819 13.9453 11.7857C13.9453 10.5895 12.9986 9.64286 11.8024 9.64286ZM33.231 9.64286C32.0351 9.64286 31.0881 10.5895 31.0881 11.7857C31.0881 12.9819 32.0351 13.9286 33.231 13.9286C34.4271 13.9286 35.3739 12.9819 35.3739 11.7857C35.3739 10.5895 34.4271 9.64286 33.231 9.64286ZM0 20.3571V42.8404C0 45.2221 1.92086 47.1429 4.30243 47.1429H40.6976C43.079 47.1429 45 45.2221 45 42.8404V20.3571H0Z" fill="url(#paint0_linear)"/>
<defs>
<linearGradient id="paint0_linear" x1="4.19491" y1="11.9855" x2="43.4936" y2="13.6735" gradientUnits="userSpaceOnUse">
<stop stop-color="#41C1BC"/>
<stop offset="1" stop-color="#5ED8D3" stop-opacity="0.81"/>
</linearGradient>
</defs>
</svg>
