<svg width="37" height="46" viewBox="0 0 37 46" fill="none" xmlns="http://www.w3.org/2000/svg">
<path d="M36.9823 10.0784C36.9823 9.08426 37.0222 8.07887 36.9823 7.08472C36.9823 7.07349 36.9823 7.06226 36.9823 7.05102C36.9823 6.52867 36.6234 6.12989 36.1448 5.967C34.1736 5.293 32.1967 4.619 30.2255 3.945C27.1149 2.88345 24.01 1.81628 20.8994 0.754725C20.2101 0.518824 19.5264 0.249223 18.8257 0.0470229C18.4782 -0.0540773 18.2389 0.0245559 17.9369 0.125656C17.5837 0.249223 17.2248 0.367173 16.8716 0.49074C13.892 1.50736 10.9181 2.52398 7.93856 3.5406C5.60846 4.33817 3.28405 5.13012 0.953945 5.92769C0.914065 5.93892 0.879883 5.95577 0.840003 5.967C0.361449 6.12989 0.00253204 6.53429 0.00253204 7.05102V17.4587C0.00253204 19.6492 -0.00316504 21.8397 0.00253204 24.0302C0.00822912 25.8894 0.33866 27.7597 0.965339 29.5121C2.24718 33.1236 4.57729 36.2971 7.35176 38.9425C10.0921 41.5543 13.2995 43.7392 16.7406 45.3455C17.1336 45.5253 17.5267 45.6994 17.9198 45.8679C17.9426 45.8791 17.9711 45.8904 17.9939 45.9016C17.9939 45.9016 17.9939 45.9016 17.9996 45.9016C18.0566 45.9241 18.1192 45.9465 18.1762 45.9634C18.4497 46.0364 18.7516 45.9971 19.0536 45.8735C19.0593 45.8735 19.065 45.8679 19.065 45.8679C22.5402 44.4132 25.7647 42.3575 28.5905 39.8917C31.439 37.4036 33.9514 34.3762 35.4555 30.9107C36.2303 29.119 36.743 27.2655 36.9139 25.3221C37.0051 24.283 36.9709 23.2327 36.9709 22.188V10.0784H36.9823ZM28.6076 16.9757C28.1347 17.4419 27.6618 17.9081 27.189 18.3742C25.138 20.3963 23.0928 22.4126 21.0418 24.4346C19.7486 25.7096 18.4497 26.9902 17.1564 28.2652C16.5013 28.9111 15.3903 28.9111 14.7409 28.2652C14.4788 28.0069 14.2167 27.7485 13.9547 27.4901C12.1202 25.6815 10.2858 23.873 8.4456 22.0588C7.76765 21.3904 7.81893 20.3513 8.4456 19.6773C9.07228 19.0089 10.2288 19.0539 10.8612 19.6773C11.1232 19.9357 11.3853 20.1997 11.6474 20.458C13.0773 21.8678 14.5073 23.2888 15.9373 24.6986C16.0113 24.6256 16.0797 24.5582 16.1538 24.4852C18.2047 22.4632 20.25 20.4412 22.3009 18.4192C23.5941 17.1442 24.8931 15.8636 26.1863 14.5886C26.8643 13.9202 27.9239 13.9708 28.6019 14.5886C29.2855 15.2064 29.2399 16.3522 28.6076 16.9757Z" fill="url(#paint0_linear)"/>
<defs>
<linearGradient id="paint0_linear" x1="3.44915" y1="11.6949" x2="35.7787" y2="12.8651" gradientUnits="userSpaceOnUse">
<stop stop-color="#41C1BC"/>
<stop offset="1" stop-color="#5ED8D3" stop-opacity="0.81"/>
</linearGradient>
</defs>
</svg>
