<svg width="43" height="47" viewBox="0 0 43 47" fill="none" xmlns="http://www.w3.org/2000/svg">
<path d="M29.5216 25.4824C29.466 28.0184 21.0766 34.2811 21.0766 34.2811C21.0766 34.2811 12.6877 28.0184 12.6316 25.4824C5.54863 26.1295 0 32.084 0 39.3357C0 47.0198 6.22898 47.0004 13.9127 47.0004H28.241C35.9242 47.0004 42.1537 47.0198 42.1537 39.3357C42.1537 32.084 36.605 26.1295 29.5216 25.4824ZM34.3372 38.7055H32.2337V40.8085H30.4405V38.7055H28.3367V36.9123H30.4405V34.8084H32.2337V36.9123H34.3372V38.7055Z" fill="url(#paint0_linear)"/>
<path d="M31.2147 9.50176C30.4344 4.12174 26.0202 0 20.6907 0C15.3604 0 10.9453 4.12385 10.1667 9.50597C10.0867 10.0603 10.0449 10.6285 10.0449 11.2064C10.0449 11.4417 10.0538 11.6739 10.0673 11.9053C10.0871 12.243 10.1195 12.5777 10.1667 12.9069C10.1743 13.0072 10.1828 13.1071 10.192 13.207C10.8635 20.803 15.3073 26.6716 20.6911 26.6716C26.1441 26.6716 30.6334 20.65 31.2147 12.9107C31.2952 12.3551 31.3369 11.7856 31.3369 11.206C31.3369 10.6264 31.2952 10.0573 31.2147 9.50176ZM29.9299 12.9625C29.4198 19.7572 25.4781 25.0437 20.6911 25.0437C15.9814 25.0437 12.0902 19.9271 11.4794 13.2918C11.8938 13.3959 12.4021 13.5969 12.9556 13.9835C12.9556 13.9835 11.9039 7.7406 14.1241 6.86423C14.1241 6.86423 21.4815 10.4422 26.4282 6.86423C26.4282 6.86423 29.365 11.5099 28.5401 13.336L30.0344 11.6195C30.0277 12.0752 29.9935 12.5241 29.9299 12.9625Z" fill="url(#paint1_linear)"/>
<defs>
<linearGradient id="paint0_linear" x1="3.92958" y1="30.9531" x2="40.526" y2="34.1793" gradientUnits="userSpaceOnUse">
<stop stop-color="#41C1BC"/>
<stop offset="1" stop-color="#5ED8D3" stop-opacity="0.81"/>
</linearGradient>
<linearGradient id="paint1_linear" x1="12.0298" y1="6.78093" x2="30.6345" y2="7.44928" gradientUnits="userSpaceOnUse">
<stop stop-color="#41C1BC"/>
<stop offset="1" stop-color="#5ED8D3" stop-opacity="0.81"/>
</linearGradient>
</defs>
</svg>
