<svg width="18" height="25" viewBox="0 0 18 25" fill="none" xmlns="http://www.w3.org/2000/svg">
<path d="M9 3.62234V0.349609L4.5 4.71325L9 9.07688V5.80415C12.7238 5.80415 15.75 8.7387 15.75 12.3496C15.75 13.4514 15.4687 14.4987 14.9625 15.4042L16.605 16.9969C17.4825 15.6551 18 14.0623 18 12.3496C18 7.52779 13.9725 3.62234 9 3.62234ZM9 18.8951C5.27625 18.8951 2.25 15.9605 2.25 12.3496C2.25 11.2478 2.53125 10.2005 3.0375 9.29506L1.395 7.70234C0.5175 9.04416 0 10.6369 0 12.3496C0 17.1714 4.0275 21.0769 9 21.0769V24.3496L13.5 19.986L9 15.6223V18.8951Z" fill="#1A5A77"/>
</svg>
